<?xml version="1.0" standalone="no"?>
<!DOCTYPE svg PUBLIC "-//W3C//DTD SVG 20010904//EN"
 "http://www.w3.org/TR/2001/REC-SVG-20010904/DTD/svg10.dtd">
<svg version="1.0" xmlns="http://www.w3.org/2000/svg"
 width="225.000000pt" height="225.000000pt" viewBox="0 0 225.000000 225.000000"
 preserveAspectRatio="xMidYMid meet">

<g transform="translate(0.000000,225.000000) scale(0.100000,-0.100000)"
fill="#000000" stroke="none">
<path d="M2 1243 l3 -978 23 -51 c29 -64 92 -126 157 -156 l50 -23 1003 -3
1002 -2 -2 992 -3 993 -27 45 c-36 61 -83 104 -143 132 l-50 23 -1008 3 -1007
2 2 -977z m2060 924 c32 -16 73 -46 92 -69 69 -80 66 -28 66 -1085 l0 -953
-1002 2 -1003 3 -47 27 c-25 16 -60 45 -77 65 -64 77 -61 31 -61 1085 l0 959
988 -3 987 -3 57 -28z"/>
<path d="M130 1193 c0 -890 0 -897 21 -940 14 -29 35 -52 63 -68 l43 -25 931
0 932 0 0 897 c0 890 0 897 -21 940 -14 29 -35 52 -63 68 l-43 25 -931 0 -932
0 0 -897z m858 725 c7 -7 12 -38 12 -71 0 -53 2 -58 18 -51 108 47 159 58 277
58 105 0 129 -3 193 -26 144 -52 251 -134 331 -254 65 -97 92 -181 98 -309 6
-124 -10 -221 -73 -445 -42 -149 -47 -176 -48 -275 l-1 -110 -699 -3 c-508 -1
-703 1 -712 9 -19 16 -21 1458 -2 1477 17 17 589 17 606 0z"/>
<path d="M1168 1764 c-67 -16 -148 -55 -199 -95 -20 -16 -40 -29 -43 -29 -3 0
-6 29 -6 65 l0 65 -235 0 -235 0 0 -630 0 -630 234 0 235 0 3 333 3 332 25 45
c36 64 96 103 167 107 72 5 115 -15 159 -74 88 -116 60 -299 -92 -600 l-71
-143 297 0 297 0 6 78 c4 42 18 118 32 167 94 338 112 475 81 609 -67 284
-372 470 -658 400z"/>
<path d="M1072 1238 c-12 -6 -32 -27 -45 -47 -21 -35 -22 -44 -25 -366 l-2
-330 20 25 c36 46 168 324 195 410 47 150 32 270 -36 305 -33 17 -74 18 -107
3z"/>
</g>
</svg>
